<svg width="72" height="72" viewBox="0 0 72 72" fill="none" xmlns="http://www.w3.org/2000/svg">
<g id="account_balance_24dp_5F6368_FILL0_wght300_GRAD0_opsz24 1">
<path id="Vector" d="M17.2499 48.7499V30.7499C17.2499 30.1124 17.4656 29.5779 17.8971 29.1464C18.3286 28.7154 18.8631 28.4999 19.5006 28.4999C20.1386 28.4999 20.6731 28.7154 21.1041 29.1464C21.5346 29.5779 21.7499 30.1124 21.7499 30.7499V48.7499C21.7499 49.3874 21.5341 49.9219 21.1026 50.3534C20.6711 50.7844 20.1366 50.9999 19.4991 50.9999C18.8611 50.9999 18.3269 50.7844 17.8964 50.3534C17.4654 49.9219 17.2499 49.3874 17.2499 48.7499ZM33.7499 48.7499V30.7499C33.7499 30.1124 33.9656 29.5779 34.3971 29.1464C34.8286 28.7154 35.3631 28.4999 36.0006 28.4999C36.6386 28.4999 37.1729 28.7154 37.6034 29.1464C38.0344 29.5779 38.2499 30.1124 38.2499 30.7499V48.7499C38.2499 49.3874 38.0341 49.9219 37.6026 50.3534C37.1711 50.7844 36.6366 50.9999 35.9991 50.9999C35.3611 50.9999 34.8269 50.7844 34.3964 50.3534C33.9654 49.9219 33.7499 49.3874 33.7499 48.7499ZM10.5576 61.4999C9.92012 61.4999 9.38587 61.2841 8.95487 60.8526C8.52337 60.4211 8.30762 59.8866 8.30762 59.2491C8.30762 58.6111 8.52337 58.0769 8.95487 57.6464C9.38587 57.2154 9.92012 56.9999 10.5576 56.9999H61.4421C62.0796 56.9999 62.6139 57.2156 63.0449 57.6471C63.4764 58.0786 63.6921 58.6131 63.6921 59.2506C63.6921 59.8886 63.4764 60.4229 63.0449 60.8534C62.6139 61.2844 62.0796 61.4999 61.4421 61.4999H10.5576ZM50.2499 48.7499V30.7499C50.2499 30.1124 50.4656 29.5779 50.8971 29.1464C51.3286 28.7154 51.8631 28.4999 52.5006 28.4999C53.1386 28.4999 53.6729 28.7154 54.1034 29.1464C54.5344 29.5779 54.7499 30.1124 54.7499 30.7499V48.7499C54.7499 49.3874 54.5341 49.9219 54.1026 50.3534C53.6711 50.7844 53.1366 50.9999 52.4991 50.9999C51.8611 50.9999 51.3266 50.7844 50.8956 50.3534C50.4651 49.9219 50.2499 49.3874 50.2499 48.7499ZM61.5576 22.4999H10.2291C9.69512 22.4999 9.24137 22.3134 8.86787 21.9404C8.49437 21.5679 8.30762 21.1151 8.30762 20.5821V19.4106C8.30762 19.0201 8.40537 18.6834 8.60087 18.4004C8.79687 18.1179 9.05487 17.8881 9.37487 17.7111L33.6171 5.84987C34.3661 5.48837 35.1591 5.30762 35.9961 5.30762C36.8331 5.30762 37.6286 5.48837 38.3826 5.84987L62.5034 17.6361C62.8804 17.8286 63.1726 18.0979 63.3801 18.4439C63.5881 18.7904 63.6921 19.1624 63.6921 19.5599V20.3729C63.6921 20.9869 63.4911 21.4949 63.0891 21.8969C62.6871 22.2989 62.1766 22.4999 61.5576 22.4999ZM18.9456 17.9999H53.0541L36.4041 9.92312C36.2691 9.86512 36.1344 9.83612 35.9999 9.83612C35.8654 9.83612 35.7306 9.86512 35.5956 9.92312L18.9456 17.9999Z" fill="#0063F2"/>
</g>
</svg>
