<svg width="72" height="72" viewBox="0 0 72 72" fill="none" xmlns="http://www.w3.org/2000/svg">
<g id="account_balance_24dp_5F6368_FILL0_wght300_GRAD0_opsz24 1">
<path id="Vector" d="M17.2499 48.7494V30.7494C17.2499 30.1119 17.4656 29.5774 17.8971 29.1459C18.3286 28.7149 18.8631 28.4994 19.5006 28.4994C20.1386 28.4994 20.6731 28.7149 21.1041 29.1459C21.5346 29.5774 21.7499 30.1119 21.7499 30.7494V48.7494C21.7499 49.3869 21.5341 49.9214 21.1026 50.3529C20.6711 50.7839 20.1366 50.9994 19.4991 50.9994C18.8611 50.9994 18.3269 50.7839 17.8964 50.3529C17.4654 49.9214 17.2499 49.3869 17.2499 48.7494ZM33.7499 48.7494V30.7494C33.7499 30.1119 33.9656 29.5774 34.3971 29.1459C34.8286 28.7149 35.3631 28.4994 36.0006 28.4994C36.6386 28.4994 37.1729 28.7149 37.6034 29.1459C38.0344 29.5774 38.2499 30.1119 38.2499 30.7494V48.7494C38.2499 49.3869 38.0341 49.9214 37.6026 50.3529C37.1711 50.7839 36.6366 50.9994 35.9991 50.9994C35.3611 50.9994 34.8269 50.7839 34.3964 50.3529C33.9654 49.9214 33.7499 49.3869 33.7499 48.7494ZM10.5576 61.4994C9.92012 61.4994 9.38587 61.2836 8.95487 60.8521C8.52337 60.4206 8.30762 59.8861 8.30762 59.2486C8.30762 58.6106 8.52337 58.0764 8.95487 57.6459C9.38587 57.2149 9.92012 56.9994 10.5576 56.9994H61.4421C62.0796 56.9994 62.6139 57.2151 63.0449 57.6466C63.4764 58.0781 63.6921 58.6126 63.6921 59.2501C63.6921 59.8881 63.4764 60.4224 63.0449 60.8529C62.6139 61.2839 62.0796 61.4994 61.4421 61.4994H10.5576ZM50.2499 48.7494V30.7494C50.2499 30.1119 50.4656 29.5774 50.8971 29.1459C51.3286 28.7149 51.8631 28.4994 52.5006 28.4994C53.1386 28.4994 53.6729 28.7149 54.1034 29.1459C54.5344 29.5774 54.7499 30.1119 54.7499 30.7494V48.7494C54.7499 49.3869 54.5341 49.9214 54.1026 50.3529C53.6711 50.7839 53.1366 50.9994 52.4991 50.9994C51.8611 50.9994 51.3266 50.7839 50.8956 50.3529C50.4651 49.9214 50.2499 49.3869 50.2499 48.7494ZM61.5576 22.4994H10.2291C9.69512 22.4994 9.24137 22.3129 8.86787 21.9399C8.49437 21.5674 8.30762 21.1146 8.30762 20.5816V19.4101C8.30762 19.0196 8.40537 18.6829 8.60087 18.3999C8.79687 18.1174 9.05487 17.8876 9.37487 17.7106L33.6171 5.84938C34.3661 5.48788 35.1591 5.30713 35.9961 5.30713C36.8331 5.30713 37.6286 5.48788 38.3826 5.84938L62.5034 17.6356C62.8804 17.8281 63.1726 18.0974 63.3801 18.4434C63.5881 18.7899 63.6921 19.1619 63.6921 19.5594V20.3724C63.6921 20.9864 63.4911 21.4944 63.0891 21.8964C62.6871 22.2984 62.1766 22.4994 61.5576 22.4994ZM18.9456 17.9994H53.0541L36.4041 9.92263C36.2691 9.86463 36.1344 9.83563 35.9999 9.83563C35.8654 9.83563 35.7306 9.86463 35.5956 9.92263L18.9456 17.9994Z" fill="#0063F2"/>
</g>
</svg>
