<svg width="32" height="32" viewBox="0 0 32 32" fill="none" xmlns="http://www.w3.org/2000/svg">
<g id="add_24dp_5F6368_FILL0_wght400_GRAD0_opsz24 1">
<path id="Vector" d="M14.666 17.3334H7.99935C7.62157 17.3334 7.3049 17.2056 7.04935 16.9501C6.79379 16.6945 6.66602 16.3779 6.66602 16.0001C6.66602 15.6223 6.79379 15.3056 7.04935 15.0501C7.3049 14.7945 7.62157 14.6667 7.99935 14.6667H14.666V8.00008C14.666 7.6223 14.7938 7.30564 15.0493 7.05008C15.3049 6.79453 15.6216 6.66675 15.9993 6.66675C16.3771 6.66675 16.6938 6.79453 16.9493 7.05008C17.2049 7.30564 17.3327 7.6223 17.3327 8.00008V14.6667H23.9993C24.3771 14.6667 24.6938 14.7945 24.9494 15.0501C25.2049 15.3056 25.3327 15.6223 25.3327 16.0001C25.3327 16.3779 25.2049 16.6945 24.9494 16.9501C24.6938 17.2056 24.3771 17.3334 23.9993 17.3334H17.3327V24.0001C17.3327 24.3779 17.2049 24.6945 16.9493 24.9501C16.6938 25.2056 16.3771 25.3334 15.9993 25.3334C15.6216 25.3334 15.3049 25.2056 15.0493 24.9501C14.7938 24.6945 14.666 24.3779 14.666 24.0001V17.3334Z" fill="#060606" fill-opacity="0.8"/>
</g>
</svg>
