<svg width="72" height="72" viewBox="0 0 72 72" fill="none" xmlns="http://www.w3.org/2000/svg">
<g id="bar_chart_24dp_5F6368_FILL0_wght300_GRAD0_opsz24 1">
<path id="Vector" d="M50.7113 58.4995C49.9433 58.4995 49.2993 58.2395 48.7793 57.7195C48.2598 57.2 48 56.556 48 55.7875V43.4995C48 42.7315 48.2598 42.0875 48.7793 41.5675C49.2993 41.048 49.9433 40.7883 50.7113 40.7883H55.788C56.5565 40.7883 57.2005 41.048 57.72 41.5675C58.24 42.0875 58.5 42.7315 58.5 43.4995V55.7875C58.5 56.556 58.24 57.2 57.72 57.7195C57.2005 58.2395 56.5565 58.4995 55.788 58.4995H50.7113ZM33.4613 58.4995C32.6933 58.4995 32.0493 58.2395 31.5293 57.7195C31.0098 57.2 30.75 56.556 30.75 55.7875V16.2115C30.75 15.443 31.0098 14.799 31.5293 14.2795C32.0493 13.7595 32.6933 13.4995 33.4613 13.4995H38.5387C39.3067 13.4995 39.9507 13.7595 40.4707 14.2795C40.9902 14.799 41.25 15.443 41.25 16.2115V55.7875C41.25 56.556 40.9902 57.2 40.4707 57.7195C39.9507 58.2395 39.3067 58.4995 38.5387 58.4995H33.4613ZM16.212 58.4995C15.4435 58.4995 14.7995 58.2395 14.28 57.7195C13.76 57.2 13.5 56.556 13.5 55.7875V30.9363C13.5 30.1543 13.76 29.5045 14.28 28.987C14.7995 28.47 15.4435 28.2115 16.212 28.2115H21.2888C22.0568 28.2115 22.7007 28.4713 23.2207 28.9908C23.7402 29.5103 24 30.1543 24 30.9228V55.774C24 56.5565 23.7402 57.2063 23.2207 57.7233C22.7007 58.2408 22.0568 58.4995 21.2888 58.4995H16.212Z" fill="#0063F2"/>
</g>
</svg>
