<svg width="72" height="72" viewBox="0 0 72 72" fill="none" xmlns="http://www.w3.org/2000/svg">
<g id="circle_notifications_24dp_5F6368_FILL0_wght300_GRAD0_opsz24 1">
<path id="Vector" d="M36 54.5753C37.1155 54.5753 38.0723 54.1858 38.8703 53.4068C39.6683 52.6283 40.096 51.6718 40.1535 50.5373H31.8465C31.904 51.6718 32.3318 52.6283 33.1298 53.4068C33.9278 54.1858 34.8845 54.5753 36 54.5753ZM30 41.883V32.652C30 31.002 30.5875 29.5895 31.7625 28.4145C32.9375 27.2395 34.35 26.652 36 26.652C37.65 26.652 39.0625 27.2395 40.2375 28.4145C41.4125 29.5895 42 31.002 42 32.652V41.883H30ZM36.0053 64.4985C32.0633 64.4985 28.358 63.7505 24.8895 62.2545C21.421 60.7585 18.404 58.7283 15.8385 56.1638C13.273 53.5993 11.2417 50.5835 9.74475 47.1165C8.24825 43.6495 7.5 39.9453 7.5 36.0038C7.5 32.0618 8.248 28.3565 9.744 24.888C11.24 21.4195 13.2703 18.4025 15.8348 15.837C18.3993 13.2715 21.415 11.2403 24.882 9.74328C28.349 8.24678 32.0533 7.49854 35.9948 7.49854C39.9368 7.49854 43.642 8.24653 47.1105 9.74253C50.579 11.2385 53.596 13.2688 56.1615 15.8333C58.727 18.3978 60.7583 21.4135 62.2553 24.8805C63.7518 28.3475 64.5 32.0518 64.5 35.9933C64.5 39.9353 63.752 43.6405 62.256 47.109C60.76 50.5775 58.7298 53.5945 56.1653 56.16C53.6008 58.7255 50.585 60.7568 47.118 62.2538C43.651 63.7503 39.9468 64.4985 36.0053 64.4985ZM36 59.9985C42.7 59.9985 48.375 57.6735 53.025 53.0235C57.675 48.3735 60 42.6985 60 35.9985C60 29.2985 57.675 23.6235 53.025 18.9735C48.375 14.3235 42.7 11.9985 36 11.9985C29.3 11.9985 23.625 14.3235 18.975 18.9735C14.325 23.6235 12 29.2985 12 35.9985C12 42.6985 14.325 48.3735 18.975 53.0235C23.625 57.6735 29.3 59.9985 36 59.9985ZM24.5768 46.7295H47.4233C48.1098 46.7295 48.6853 46.4973 49.1498 46.0328C49.6138 45.5683 49.8458 44.9928 49.8458 44.3063C49.8458 43.6198 49.6138 43.0443 49.1498 42.5798C48.6853 42.1153 48.1098 41.883 47.4233 41.883H46.8458V33.9098C46.8458 31.1098 46.116 28.558 44.6565 26.2545C43.197 23.9505 41.1577 22.487 38.5387 21.864V19.9028C38.5387 19.1668 38.2993 18.55 37.8203 18.0525C37.3413 17.555 36.7345 17.3063 36 17.3063C35.2655 17.3063 34.6588 17.555 34.1798 18.0525C33.7008 18.55 33.4613 19.1668 33.4613 19.9028V21.864C30.8423 22.487 28.803 23.9408 27.3435 26.2253C25.884 28.5098 25.1543 31.052 25.1543 33.852V41.883H24.5768C23.8903 41.883 23.3148 42.1153 22.8503 42.5798C22.3863 43.0443 22.1543 43.6198 22.1543 44.3063C22.1543 44.9928 22.3863 45.5683 22.8503 46.0328C23.3148 46.4973 23.8903 46.7295 24.5768 46.7295Z" fill="#0063F2"/>
</g>
</svg>
