<svg width="24" height="24" viewBox="0 0 24 24" fill="none" xmlns="http://www.w3.org/2000/svg">
<g id="close_24dp_5F6368_FILL0_wght400_GRAD0_opsz24 2">
<path id="Vector" d="M12 13.4L4.97871 20.4214C4.79538 20.6047 4.56204 20.6964 4.27871 20.6964C3.99538 20.6964 3.76204 20.6047 3.57871 20.4214C3.39538 20.238 3.30371 20.0047 3.30371 19.7214C3.30371 19.438 3.39538 19.2047 3.57871 19.0214L10.6 12L3.57871 4.97871C3.39538 4.79538 3.30371 4.56204 3.30371 4.27871C3.30371 3.99538 3.39538 3.76204 3.57871 3.57871C3.76204 3.39538 3.99538 3.30371 4.27871 3.30371C4.56204 3.30371 4.79538 3.39538 4.97871 3.57871L12 10.6L19.0214 3.57871C19.2047 3.39538 19.438 3.30371 19.7214 3.30371C20.0047 3.30371 20.238 3.39538 20.4214 3.57871C20.6047 3.76204 20.6964 3.99538 20.6964 4.27871C20.6964 4.56204 20.6047 4.79538 20.4214 4.97871L13.4 12L20.4214 19.0214C20.6047 19.2047 20.6964 19.438 20.6964 19.7214C20.6964 20.0047 20.6047 20.238 20.4214 20.4214C20.238 20.6047 20.0047 20.6964 19.7214 20.6964C19.438 20.6964 19.2047 20.6047 19.0214 20.4214L12 13.4Z" fill="#060606"/>
</g>
</svg>
