<svg width="32" height="32" viewBox="0 0 32 32" fill="none" xmlns="http://www.w3.org/2000/svg">
<g id="do_not_disturb_on_24dp_5F6368_FILL1_wght400_GRAD0_opsz24 1">
<path id="Vector" d="M10.667 17.3333H21.3337C21.7114 17.3333 22.0281 17.2055 22.2837 16.95C22.5392 16.6944 22.667 16.3777 22.667 16C22.667 15.6222 22.5392 15.3055 22.2837 15.05C22.0281 14.7944 21.7114 14.6666 21.3337 14.6666H10.667C10.2892 14.6666 9.97255 14.7944 9.71699 15.05C9.46144 15.3055 9.33366 15.6222 9.33366 16C9.33366 16.3777 9.46144 16.6944 9.71699 16.95C9.97255 17.2055 10.2892 17.3333 10.667 17.3333ZM16.0003 29.3333C14.1559 29.3333 12.4225 28.9833 10.8003 28.2833C9.1781 27.5833 7.76699 26.6333 6.56699 25.4333C5.36699 24.2333 4.41699 22.8222 3.71699 21.2C3.01699 19.5777 2.66699 17.8444 2.66699 16C2.66699 14.1555 3.01699 12.4222 3.71699 10.8C4.41699 9.17774 5.36699 7.76663 6.56699 6.56663C7.76699 5.36663 9.1781 4.41663 10.8003 3.71663C12.4225 3.01663 14.1559 2.66663 16.0003 2.66663C17.8448 2.66663 19.5781 3.01663 21.2003 3.71663C22.8225 4.41663 24.2337 5.36663 25.4337 6.56663C26.6337 7.76663 27.5837 9.17774 28.2837 10.8C28.9837 12.4222 29.3337 14.1555 29.3337 16C29.3337 17.8444 28.9837 19.5777 28.2837 21.2C27.5837 22.8222 26.6337 24.2333 25.4337 25.4333C24.2337 26.6333 22.8225 27.5833 21.2003 28.2833C19.5781 28.9833 17.8448 29.3333 16.0003 29.3333Z" fill="#060606" fill-opacity="0.5"/>
</g>
</svg>
