<svg width="72" height="72" viewBox="0 0 72 72" fill="none" xmlns="http://www.w3.org/2000/svg">
<g id="document_scanner_24dp_5F6368_FILL0_wght300_GRAD0_opsz24 1">
<path id="Vector" d="M6.75 14.9993V9.17252C6.75 7.68102 7.281 6.40427 8.343 5.34227C9.405 4.28027 10.6817 3.74927 12.1733 3.74927H18C18.6375 3.74927 19.1718 3.96502 19.6028 4.39652C20.0343 4.82802 20.25 5.36252 20.25 6.00002C20.25 6.63802 20.0343 7.17227 19.6028 7.60277C19.1718 8.03377 18.6375 8.24927 18 8.24927H12.1733C11.9038 8.24927 11.6825 8.33577 11.5095 8.50877C11.3365 8.68177 11.25 8.90302 11.25 9.17252V14.9993C11.25 15.6368 11.0342 16.171 10.6027 16.602C10.1712 17.0335 9.63675 17.2493 8.99925 17.2493C8.36125 17.2493 7.827 17.0335 7.3965 16.602C6.9655 16.171 6.75 15.6368 6.75 14.9993ZM60.75 14.9993V9.17252C60.75 8.90302 60.6635 8.68177 60.4905 8.50877C60.3175 8.33577 60.0963 8.24927 59.8268 8.24927H54C53.3625 8.24927 52.8283 8.03352 52.3973 7.60202C51.9658 7.17052 51.75 6.63602 51.75 5.99852C51.75 5.36052 51.9658 4.82627 52.3973 4.39577C52.8283 3.96477 53.3625 3.74927 54 3.74927H59.8268C61.3183 3.74927 62.595 4.28027 63.657 5.34227C64.719 6.40427 65.25 7.68102 65.25 9.17252V14.9993C65.25 15.6368 65.0343 16.171 64.6028 16.602C64.1713 17.0335 63.6368 17.2493 62.9993 17.2493C62.3613 17.2493 61.827 17.0335 61.3965 16.602C60.9655 16.171 60.75 15.6368 60.75 14.9993ZM6.75 62.826V56.9993C6.75 56.3618 6.96575 55.8275 7.39725 55.3965C7.82875 54.965 8.36325 54.7493 9.00075 54.7493C9.63875 54.7493 10.173 54.965 10.6035 55.3965C11.0345 55.8275 11.25 56.3618 11.25 56.9993V62.826C11.25 63.0955 11.3365 63.3168 11.5095 63.4898C11.6825 63.6628 11.9038 63.7493 12.1733 63.7493H18C18.6375 63.7493 19.1718 63.965 19.6028 64.3965C20.0343 64.828 20.25 65.3625 20.25 66C20.25 66.638 20.0343 67.1723 19.6028 67.6028C19.1718 68.0338 18.6375 68.2493 18 68.2493H12.1733C10.6817 68.2493 9.405 67.7183 8.343 66.6563C7.281 65.5943 6.75 64.3175 6.75 62.826ZM59.8268 68.2493H54C53.3625 68.2493 52.8283 68.0335 52.3973 67.602C51.9658 67.1705 51.75 66.636 51.75 65.9985C51.75 65.3605 51.9658 64.8263 52.3973 64.3958C52.8283 63.9648 53.3625 63.7493 54 63.7493H59.8268C60.0963 63.7493 60.3175 63.6628 60.4905 63.4898C60.6635 63.3168 60.75 63.0955 60.75 62.826V56.9993C60.75 56.3618 60.9658 55.8275 61.3973 55.3965C61.8288 54.965 62.3633 54.7493 63.0008 54.7493C63.6388 54.7493 64.173 54.965 64.6035 55.3965C65.0345 55.8275 65.25 56.3618 65.25 56.9993V62.826C65.25 64.3175 64.719 65.5943 63.657 66.6563C62.595 67.7183 61.3183 68.2493 59.8268 68.2493ZM20.25 53.826C20.25 54.057 20.3463 54.2685 20.5388 54.4605C20.7308 54.653 20.9423 54.7493 21.1733 54.7493H50.8268C51.0578 54.7493 51.2693 54.653 51.4613 54.4605C51.6538 54.2685 51.75 54.057 51.75 53.826V18.1725C51.75 17.9415 51.6538 17.73 51.4613 17.538C51.2693 17.3455 51.0578 17.2493 50.8268 17.2493H21.1733C20.9423 17.2493 20.7308 17.3455 20.5388 17.538C20.3463 17.73 20.25 17.9415 20.25 18.1725V53.826ZM21.1733 59.2493C19.6578 59.2493 18.375 58.7243 17.325 57.6743C16.275 56.6243 15.75 55.3415 15.75 53.826V18.1725C15.75 16.657 16.275 15.3743 17.325 14.3243C18.375 13.2743 19.6578 12.7493 21.1733 12.7493H50.8268C52.3423 12.7493 53.625 13.2743 54.675 14.3243C55.725 15.3743 56.25 16.657 56.25 18.1725V53.826C56.25 55.3415 55.725 56.6243 54.675 57.6743C53.625 58.7243 52.3423 59.2493 50.8268 59.2493H21.1733ZM30 29.2493H42C42.6375 29.2493 43.1718 29.0335 43.6028 28.602C44.0343 28.1705 44.25 27.636 44.25 26.9985C44.25 26.3605 44.0343 25.8263 43.6028 25.3958C43.1718 24.9648 42.6375 24.7493 42 24.7493H30C29.3625 24.7493 28.8283 24.965 28.3973 25.3965C27.9658 25.828 27.75 26.3625 27.75 27C27.75 27.638 27.9658 28.1723 28.3973 28.6028C28.8283 29.0338 29.3625 29.2493 30 29.2493ZM30 38.2493H42C42.6375 38.2493 43.1718 38.0335 43.6028 37.602C44.0343 37.1705 44.25 36.636 44.25 35.9985C44.25 35.3605 44.0343 34.8263 43.6028 34.3958C43.1718 33.9648 42.6375 33.7493 42 33.7493H30C29.3625 33.7493 28.8283 33.965 28.3973 34.3965C27.9658 34.828 27.75 35.3625 27.75 36C27.75 36.638 27.9658 37.1723 28.3973 37.6028C28.8283 38.0338 29.3625 38.2493 30 38.2493ZM30 47.2493H42C42.6375 47.2493 43.1718 47.0335 43.6028 46.602C44.0343 46.1705 44.25 45.636 44.25 44.9985C44.25 44.3605 44.0343 43.8263 43.6028 43.3958C43.1718 42.9648 42.6375 42.7493 42 42.7493H30C29.3625 42.7493 28.8283 42.965 28.3973 43.3965C27.9658 43.828 27.75 44.3625 27.75 45C27.75 45.638 27.9658 46.1723 28.3973 46.6028C28.8283 47.0338 29.3625 47.2493 30 47.2493ZM20.25 53.826V17.2493V54.7493V53.826Z" fill="#0063F2"/>
</g>
</svg>
