<svg width="72" height="72" viewBox="0 0 72 72" fill="none" xmlns="http://www.w3.org/2000/svg">
<g id="fact_check_24dp_5F6368_FILL0_wght300_GRAD0_opsz24 1">
<path id="Vector" d="M12.9233 61.4993C11.4077 61.4993 10.125 60.9743 9.075 59.9243C8.025 58.8743 7.5 57.5915 7.5 56.076V15.9225C7.5 14.407 8.025 13.1243 9.075 12.0743C10.125 11.0243 11.4077 10.4993 12.9233 10.4993H59.0768C60.5923 10.4993 61.875 11.0243 62.925 12.0743C63.975 13.1243 64.5 14.407 64.5 15.9225V56.076C64.5 57.5915 63.975 58.8743 62.925 59.9243C61.875 60.9743 60.5923 61.4993 59.0768 61.4993H12.9233ZM12.9233 56.9993H59.0768C59.3078 56.9993 59.5193 56.903 59.7113 56.7105C59.9038 56.5185 60 56.307 60 56.076V15.9225C60 15.6915 59.9038 15.48 59.7113 15.288C59.5193 15.0955 59.3078 14.9993 59.0768 14.9993H12.9233C12.6923 14.9993 12.4808 15.0955 12.2888 15.288C12.0963 15.48 12 15.6915 12 15.9225V56.076C12 56.307 12.0963 56.5185 12.2888 56.7105C12.4808 56.903 12.6923 56.9993 12.9233 56.9993ZM27 50.2493C27.6385 50.2493 28.173 50.0338 28.6035 49.6028C29.0345 49.1723 29.25 48.6378 29.25 47.9993C29.25 47.3608 29.0345 46.8263 28.6035 46.3958C28.173 45.9648 27.6385 45.7493 27 45.7493H18C17.3615 45.7493 16.827 45.9648 16.3965 46.3958C15.9655 46.8263 15.75 47.3608 15.75 47.9993C15.75 48.6378 15.9655 49.1723 16.3965 49.6028C16.827 50.0338 17.3615 50.2493 18 50.2493H27ZM43.65 37.5915L40.956 34.8975C40.5095 34.4515 39.9825 34.2313 39.375 34.2368C38.7675 34.2428 38.2405 34.4783 37.794 34.9433C37.379 35.3898 37.1685 35.9168 37.1625 36.5243C37.157 37.1318 37.3773 37.6588 37.8233 38.1053L41.7518 42.0338C42.2943 42.5763 42.927 42.8475 43.65 42.8475C44.373 42.8475 45.0058 42.5763 45.5483 42.0338L55.8518 31.7303C56.2978 31.2838 56.5258 30.7615 56.5358 30.1635C56.5453 29.5655 56.3173 29.0338 55.8518 28.5683C55.3863 28.1033 54.8518 27.8708 54.2483 27.8708C53.6443 27.8708 53.1095 28.1033 52.644 28.5683L43.65 37.5915ZM27 38.2493C27.6385 38.2493 28.173 38.0338 28.6035 37.6028C29.0345 37.1723 29.25 36.6378 29.25 35.9993C29.25 35.3608 29.0345 34.8263 28.6035 34.3958C28.173 33.9648 27.6385 33.7493 27 33.7493H18C17.3615 33.7493 16.827 33.9648 16.3965 34.3958C15.9655 34.8263 15.75 35.3608 15.75 35.9993C15.75 36.6378 15.9655 37.1723 16.3965 37.6028C16.827 38.0338 17.3615 38.2493 18 38.2493H27ZM27 26.2493C27.6385 26.2493 28.173 26.0338 28.6035 25.6028C29.0345 25.1723 29.25 24.6378 29.25 23.9993C29.25 23.3608 29.0345 22.8263 28.6035 22.3958C28.173 21.9648 27.6385 21.7493 27 21.7493H18C17.3615 21.7493 16.827 21.9648 16.3965 22.3958C15.9655 22.8263 15.75 23.3608 15.75 23.9993C15.75 24.6378 15.9655 25.1723 16.3965 25.6028C16.827 26.0338 17.3615 26.2493 18 26.2493H27Z" fill="#0063F2"/>
</g>
</svg>
