<svg width="72" height="72" viewBox="0 0 72 72" fill="none" xmlns="http://www.w3.org/2000/svg">
<g id="finance_mode_24dp_5F6368_FILL0_wght300_GRAD0_opsz24 1">
<path id="Vector" d="M25.0387 34.4998V22.4998C25.0387 21.5383 25.3752 20.7211 26.0482 20.0481C26.7212 19.3751 27.5384 19.0386 28.4999 19.0386C29.4614 19.0386 30.2787 19.3751 30.9517 20.0481C31.6247 20.7211 31.9612 21.5383 31.9612 22.4998V34.4998C31.9612 35.4613 31.6247 36.2786 30.9517 36.9516C30.2787 37.6246 29.4614 37.9611 28.4999 37.9611C27.5384 37.9611 26.7212 37.6246 26.0482 36.9516C25.3752 36.2786 25.0387 35.4613 25.0387 34.4998ZM39.0577 36.1041V10.4998C39.0577 9.53833 39.3942 8.72108 40.0672 8.04808C40.7402 7.37508 41.5574 7.03857 42.5189 7.03857C43.4804 7.03857 44.2977 7.37508 44.9707 8.04808C45.6437 8.72108 45.9802 9.53833 45.9802 10.4998V36.1041C45.9802 37.2576 45.6249 38.1228 44.9144 38.6998C44.2039 39.2768 43.4069 39.5653 42.5234 39.5653C41.6399 39.5653 40.8414 39.2768 40.1279 38.6998C39.4144 38.1228 39.0577 37.2576 39.0577 36.1041ZM10.9619 44.4921V34.4998C10.9619 33.5383 11.2984 32.7211 11.9714 32.0481C12.6444 31.3751 13.4617 31.0386 14.4232 31.0386C15.3847 31.0386 16.2019 31.3751 16.8749 32.0481C17.5479 32.7211 17.8844 33.5383 17.8844 34.4998V44.4921C17.8844 45.6461 17.5292 46.5113 16.8187 47.0878C16.1077 47.6648 15.3104 47.9533 14.4269 47.9533C13.5434 47.9533 12.7449 47.6648 12.0314 47.0878C11.3184 46.5113 10.9619 45.6461 10.9619 44.4921ZM16.1894 62.3998C15.2039 62.3998 14.5162 61.9411 14.1262 61.0236C13.7357 60.1066 13.8999 59.2883 14.6189 58.5688L26.6309 46.5576C27.1229 46.0651 27.7219 45.7938 28.4279 45.7438C29.1334 45.6938 29.7594 45.9151 30.3059 46.4076L39.0577 53.9308L57.5887 35.3998H53.9999C53.3624 35.3998 52.8282 35.1841 52.3972 34.7526C51.9657 34.3211 51.7499 33.7866 51.7499 33.1491C51.7499 32.5111 51.9657 31.9768 52.3972 31.5463C52.8282 31.1153 53.3624 30.8998 53.9999 30.8998H62.5387C63.3067 30.8998 63.9507 31.1596 64.4707 31.6791C64.9902 32.1991 65.2499 32.8431 65.2499 33.6111V42.1498C65.2499 42.7873 65.0342 43.3216 64.6027 43.7526C64.1712 44.1841 63.6367 44.3998 62.9992 44.3998C62.3612 44.3998 61.8269 44.1841 61.3964 43.7526C60.9654 43.3216 60.7499 42.7873 60.7499 42.1498V38.5611L41.0189 58.2921C40.5269 58.7846 39.9279 59.0558 39.2219 59.1058C38.5164 59.1558 37.8904 58.9346 37.3439 58.4421L28.5922 50.9188L17.7809 61.7308C17.5914 61.9163 17.3544 62.0743 17.0699 62.2048C16.7859 62.3348 16.4924 62.3998 16.1894 62.3998Z" fill="#0063F2"/>
</g>
</svg>
