<svg width="24" height="24" viewBox="0 0 24 24" fill="none" xmlns="http://www.w3.org/2000/svg">
<g id="Instagram">
<path id="Vector" fill-rule="evenodd" clip-rule="evenodd" d="M16.4461 1.00049H7.55392C3.94007 1.00049 1 3.94056 1 7.55441V16.4466C1 20.0604 3.94007 23.0005 7.55392 23.0005H16.4461C20.0599 23.0005 23 20.0604 23 16.4466V7.55441C23 3.94056 20.0599 1.00049 16.4461 1.00049ZM20.7868 16.4466C20.7868 18.8439 18.8434 20.7873 16.4461 20.7873H7.55392C5.15663 20.7873 3.2132 18.8439 3.2132 16.4466V7.55441C3.2132 5.15707 5.15663 3.21369 7.55392 3.21369H16.4461C18.8434 3.21369 20.7868 5.15707 20.7868 7.55441V16.4466ZM12.0019 6.3105C8.86441 6.3105 6.31189 8.86302 6.31189 12.0004C6.31189 15.1379 8.86441 17.6904 12.0019 17.6904C15.1393 17.6904 17.6919 15.1379 17.6919 12.0004C17.6919 8.86298 15.1393 6.3105 12.0019 6.3105ZM12.0019 15.4773C10.0817 15.4773 8.52509 13.9207 8.52509 12.0005C8.52509 10.0803 10.0817 8.5237 12.0019 8.5237C13.9221 8.5237 15.4787 10.0803 15.4787 12.0005C15.4787 13.9206 13.922 15.4773 12.0019 15.4773ZM19.0667 6.35329C19.0667 7.1063 18.4563 7.71673 17.7033 7.71673C16.9503 7.71673 16.3398 7.1063 16.3398 6.35329C16.3398 5.60028 16.9503 4.98985 17.7033 4.98985C18.4563 4.98985 19.0667 5.60028 19.0667 6.35329Z" fill="white" fill-opacity="0.8"/>
</g>
</svg>
