<svg width="24" height="24" viewBox="0 0 24 24" fill="none" xmlns="http://www.w3.org/2000/svg">
<g id="menu_24dp_5F6368_FILL0_wght400_GRAD0_opsz24 2">
<path id="Vector" d="M12 13.4L4.97871 20.4213C4.79538 20.6046 4.56204 20.6963 4.27871 20.6963C3.99538 20.6963 3.76204 20.6046 3.57871 20.4213C3.39538 20.238 3.30371 20.0046 3.30371 19.7213C3.30371 19.438 3.39538 19.2046 3.57871 19.0213L10.6 12L3.57871 4.97865C3.39538 4.79532 3.30371 4.56198 3.30371 4.27865C3.30371 3.99532 3.39538 3.76198 3.57871 3.57865C3.76204 3.39532 3.99538 3.30365 4.27871 3.30365C4.56204 3.30365 4.79538 3.39532 4.97871 3.57865L12 10.6L19.0214 3.57865C19.2047 3.39532 19.438 3.30365 19.7214 3.30365C20.0047 3.30365 20.238 3.39532 20.4214 3.57865C20.6047 3.76198 20.6964 3.99532 20.6964 4.27865C20.6964 4.56198 20.6047 4.79532 20.4214 4.97865L13.4 12L20.4214 19.0213C20.6047 19.2046 20.6964 19.438 20.6964 19.7213C20.6964 20.0046 20.6047 20.238 20.4214 20.4213C20.238 20.6046 20.0047 20.6963 19.7214 20.6963C19.438 20.6963 19.2047 20.6046 19.0214 20.4213L12 13.4Z" fill="white"/>
</g>
</svg>
