<svg width="24" height="24" viewBox="0 0 24 24" fill="none" xmlns="http://www.w3.org/2000/svg">
<g id="menu_24dp_5F6368_FILL0_wght400_GRAD0_opsz24 1" clip-path="url(#clip0_304_2251)">
<path id="Vector" d="M1 18C0.716667 18 0.479167 17.9042 0.2875 17.7125C0.0958334 17.5208 0 17.2833 0 17C0 16.7167 0.0958334 16.4792 0.2875 16.2875C0.479167 16.0958 0.716667 16 1 16H23C23.2833 16 23.5208 16.0958 23.7125 16.2875C23.9042 16.4792 24 16.7167 24 17C24 17.2833 23.9042 17.5208 23.7125 17.7125C23.5208 17.9042 23.2833 18 23 18H1ZM1 8C0.716667 8 0.479167 7.90417 0.2875 7.7125C0.0958334 7.52083 0 7.28333 0 7C0 6.71667 0.0958334 6.47917 0.2875 6.2875C0.479167 6.09583 0.716667 6 1 6H23C23.2833 6 23.5208 6.09583 23.7125 6.2875C23.9042 6.47917 24 6.71667 24 7C24 7.28333 23.9042 7.52083 23.7125 7.7125C23.5208 7.90417 23.2833 8 23 8H1Z" fill="#060606"/>
</g>
<defs>
<clipPath id="clip0_304_2251">
<rect width="24" height="24" fill="white"/>
</clipPath>
</defs>
</svg>
