<svg width="72" height="72" viewBox="0 0 72 72" fill="none" xmlns="http://www.w3.org/2000/svg">
<g id="monitoring_24dp_5F6368_FILL0_wght300_GRAD0_opsz24 1">
<path id="Vector" d="M11.9993 62.2497C11.3613 62.2497 10.827 62.034 10.3965 61.6025C9.9655 61.1715 9.75 60.6373 9.75 59.9998V57.317C9.75 56.6795 9.96575 56.1452 10.3973 55.7142C10.8288 55.2827 11.3632 55.067 12.0007 55.067C12.6387 55.067 13.173 55.2827 13.6035 55.7142C14.0345 56.1452 14.25 56.6795 14.25 57.317V59.9998C14.25 60.6373 14.0342 61.1715 13.6027 61.6025C13.1712 62.034 12.6368 62.2497 11.9993 62.2497ZM23.9992 62.2497C23.3612 62.2497 22.827 62.034 22.3965 61.6025C21.9655 61.1715 21.75 60.6373 21.75 59.9998V43.817C21.75 43.1795 21.9658 42.6452 22.3973 42.2143C22.8288 41.7828 23.3633 41.567 24.0008 41.567C24.6388 41.567 25.173 41.7828 25.6035 42.2143C26.0345 42.6452 26.25 43.1795 26.25 43.817V59.9998C26.25 60.6373 26.0343 61.1715 25.6028 61.6025C25.1713 62.034 24.6367 62.2497 23.9992 62.2497ZM35.9993 62.2497C35.3613 62.2497 34.827 62.034 34.3965 61.6025C33.9655 61.1715 33.75 60.6373 33.75 59.9998V49.817C33.75 49.1795 33.9658 48.6452 34.3973 48.2142C34.8288 47.7827 35.3633 47.567 36.0008 47.567C36.6388 47.567 37.173 47.7827 37.6035 48.2142C38.0345 48.6452 38.25 49.1795 38.25 49.817V59.9998C38.25 60.6373 38.0343 61.1715 37.6028 61.6025C37.1713 62.034 36.6368 62.2497 35.9993 62.2497ZM47.9993 62.2497C47.3613 62.2497 46.827 62.034 46.3965 61.6025C45.9655 61.1715 45.75 60.6373 45.75 59.9998V45.317C45.75 44.6795 45.9658 44.1452 46.3973 43.7142C46.8288 43.2827 47.3633 43.067 48.0008 43.067C48.6388 43.067 49.173 43.2827 49.6035 43.7142C50.0345 44.1452 50.25 44.6795 50.25 45.317V59.9998C50.25 60.6373 50.0343 61.1715 49.6028 61.6025C49.1713 62.034 48.6368 62.2497 47.9993 62.2497ZM59.9993 62.2497C59.3613 62.2497 58.827 62.034 58.3965 61.6025C57.9655 61.1715 57.75 60.6373 57.75 59.9998V33.317C57.75 32.6795 57.9658 32.1453 58.3973 31.7143C58.8288 31.2828 59.3633 31.067 60.0008 31.067C60.6388 31.067 61.173 31.2828 61.6035 31.7143C62.0345 32.1453 62.25 32.6795 62.25 33.317V59.9998C62.25 60.6373 62.0343 61.1715 61.6028 61.6025C61.1713 62.034 60.6368 62.2497 59.9993 62.2497ZM42 35.117C41.296 35.117 40.6155 34.982 39.9585 34.712C39.3015 34.442 38.7013 34.0597 38.1578 33.5652L30.6638 26.0705C30.4908 25.8975 30.2695 25.811 30 25.811C29.7305 25.811 29.5093 25.8975 29.3363 26.0705L13.581 41.8265C13.1345 42.2725 12.5998 42.4928 11.9768 42.4873C11.3538 42.4813 10.8192 42.2458 10.3732 41.7808C9.95775 41.3343 9.75925 40.8033 9.77775 40.1878C9.79625 39.5718 10.01 39.0585 10.419 38.648L26.1577 22.9093C26.7012 22.3698 27.3015 21.9763 27.9585 21.7288C28.6155 21.4813 29.296 21.3575 30 21.3575C30.704 21.3575 31.3958 21.4813 32.0753 21.7288C32.7548 21.9763 33.3438 22.3698 33.8423 22.9093L41.3363 30.404C41.5093 30.577 41.7305 30.6635 42 30.6635C42.2695 30.6635 42.4907 30.577 42.6637 30.404L58.419 14.648C58.8655 14.202 59.4003 13.9818 60.0233 13.9873C60.6463 13.9933 61.1808 14.2288 61.6268 14.6938C62.0423 15.1403 62.2408 15.6713 62.2223 16.2868C62.2038 16.9028 61.99 17.416 61.581 17.8265L45.8422 33.5652C45.3437 34.0597 44.7548 34.442 44.0753 34.712C43.3958 34.982 42.704 35.117 42 35.117Z" fill="#0063F2"/>
</g>
</svg>
