<svg width="360" height="240" viewBox="0 0 360 240" fill="none" xmlns="http://www.w3.org/2000/svg">
<g clip-path="url(#clip0_21_426)">
<path d="M133.739 141.656L149.956 97.655H157.248L173.339 141.656H166.3L162.528 130.907H144.551L140.779 141.656H133.739ZM146.436 125.627H160.642L153.539 105.575L146.436 125.627Z" fill="#060606" fill-opacity="0.8"/>
<path d="M174.196 141.656V110.478H180.104L180.607 115.947C181.57 114.019 182.974 112.51 184.818 111.421C186.705 110.29 188.862 109.724 191.293 109.724C195.064 109.724 198.019 110.897 200.156 113.244C202.335 115.591 203.424 119.09 203.424 123.741V141.656H196.824V124.433C196.824 118.398 194.352 115.381 189.407 115.381C186.935 115.381 184.881 116.261 183.247 118.021C181.654 119.781 180.859 122.295 180.859 125.564V141.656H174.196Z" fill="#060606" fill-opacity="0.8"/>
<path d="M206.243 141.656V96.3978H212.906V123.364L224.849 110.478H232.832L219.57 124.621L234.781 141.656H226.358L212.906 125.69V141.656H206.243Z" fill="#060606" fill-opacity="0.8"/>
<path d="M244.8 142.41C242.16 142.41 239.981 141.97 238.263 141.09C236.545 140.21 235.267 139.058 234.428 137.633C233.591 136.166 233.171 134.574 233.171 132.856C233.171 129.838 234.345 127.45 236.692 125.69C239.038 123.93 242.39 123.05 246.749 123.05H254.92V122.484C254.92 120.053 254.25 118.231 252.909 117.015C251.61 115.8 249.912 115.192 247.818 115.192C245.974 115.192 244.36 115.653 242.978 116.575C241.636 117.455 240.819 118.775 240.526 120.535H233.863C234.072 118.272 234.827 116.345 236.125 114.752C237.467 113.118 239.143 111.882 241.155 111.044C243.208 110.164 245.449 109.724 247.88 109.724C252.239 109.724 255.612 110.876 258 113.181C260.389 115.444 261.584 118.545 261.584 122.484V141.656H255.8L255.235 136.313C254.355 138.031 253.076 139.477 251.4 140.65C249.724 141.823 247.524 142.41 244.8 142.41ZM246.12 137.004C247.922 137.004 249.431 136.585 250.646 135.747C251.903 134.867 252.867 133.715 253.538 132.29C254.25 130.865 254.69 129.294 254.857 127.576H247.441C244.8 127.576 242.915 128.036 241.783 128.958C240.693 129.88 240.149 131.033 240.149 132.416C240.149 133.84 240.672 134.972 241.72 135.81C242.81 136.606 244.277 137.004 246.12 137.004Z" fill="#060606" fill-opacity="0.8"/>
<path d="M264.324 141.656V110.478H270.296L270.861 116.387C271.951 114.333 273.459 112.72 275.387 111.547C277.356 110.331 279.724 109.724 282.49 109.724V116.701H280.666C278.823 116.701 277.168 117.015 275.701 117.644C274.276 118.231 273.124 119.257 272.244 120.724C271.405 122.149 270.987 124.139 270.987 126.695V141.656H264.324Z" fill="#060606" fill-opacity="0.8"/>
<path d="M293.734 142.41C291.094 142.41 288.915 141.97 287.197 141.09C285.478 140.21 284.201 139.058 283.362 137.633C282.524 136.166 282.105 134.574 282.105 132.856C282.105 129.838 283.278 127.45 285.625 125.69C287.972 123.93 291.324 123.05 295.683 123.05H303.854V122.484C303.854 120.053 303.184 118.231 301.843 117.015C300.543 115.8 298.846 115.192 296.751 115.192C294.907 115.192 293.294 115.653 291.911 116.575C290.57 117.455 289.753 118.775 289.46 120.535H282.797C283.006 118.272 283.76 116.345 285.059 114.752C286.4 113.118 288.077 111.882 290.088 111.044C292.142 110.164 294.383 109.724 296.814 109.724C301.172 109.724 304.546 110.876 306.934 113.181C309.323 115.444 310.517 118.545 310.517 122.484V141.656H304.734L304.168 136.313C303.288 138.031 302.01 139.477 300.334 140.65C298.658 141.823 296.458 142.41 293.734 142.41ZM295.054 137.004C296.856 137.004 298.365 136.585 299.58 135.747C300.837 134.867 301.801 133.715 302.471 132.29C303.184 130.865 303.624 129.294 303.791 127.576H296.374C293.734 127.576 291.848 128.036 290.717 128.958C289.627 129.88 289.083 131.033 289.083 132.416C289.083 133.84 289.606 134.972 290.654 135.81C291.743 136.606 293.21 137.004 295.054 137.004Z" fill="#060606" fill-opacity="0.8"/>
<path fill-rule="evenodd" clip-rule="evenodd" d="M98.316 122.43H92.8734L77.4287 150.388L80.15 155H114.746L117.855 151.891V136.579H111.637V148.782H85.4194L95.5946 130.363L101.767 141.536L107.21 138.529L98.316 122.43Z" fill="#060606" fill-opacity="0.8"/>
<path fill-rule="evenodd" clip-rule="evenodd" d="M50 88.109L53.109 85H114.791L117.9 88.109V116.991H111.682V91.2179H56.2179V148.672H70.6595V154.89H53.109L50 151.781V88.109Z" fill="#060606" fill-opacity="0.8"/>
<path fill-rule="evenodd" clip-rule="evenodd" d="M111.684 131.461V122.157H117.902V131.461H111.684Z" fill="#060606" fill-opacity="0.8"/>
</g>
<defs>
<clipPath id="clip0_21_426">
<rect width="260.556" height="70" fill="white" transform="translate(50 85)"/>
</clipPath>
</defs>
</svg>
