<svg width="360" height="240" viewBox="0 0 360 240" fill="none" xmlns="http://www.w3.org/2000/svg">
<g clip-path="url(#clip0_21_416)">
<path d="M39 150V100H68.2143L76.3571 108.143V131.857L68.2143 140H49.1429V150H39ZM66.2143 108.571H49.1429V131.429H66.2143V108.571Z" fill="#060606" fill-opacity="0.8"/>
<path d="M83.2939 140V90H93.4368V100H112.294L120.151 107.857V140H110.009V108.571H93.4368V140H83.2939Z" fill="#060606" fill-opacity="0.8"/>
<path d="M127.088 132.429V107.571L134.659 100H155.945L163.517 107.571V132.429L155.945 140H134.659L127.088 132.429ZM137.231 131.714H153.374V108.286H137.231V131.714Z" fill="#060606" fill-opacity="0.8"/>
<path d="M169.917 132.429V107.571L177.489 100H205.632V122.429H180.06V131.429H204.203V140H177.489L169.917 132.429ZM180.06 116.857L196.775 116.143V108H180.06V116.857Z" fill="#060606" fill-opacity="0.8"/>
<path d="M212.549 140V100H241.549L249.406 107.857V140H239.263V108.857H222.692V140H212.549Z" fill="#060606" fill-opacity="0.8"/>
<path d="M256.843 140V100H266.986V140H256.843Z" fill="#060606" fill-opacity="0.8"/>
<path d="M276.261 93.4648L287.725 119.164L276.794 144.982H287.833L298.809 119.058L287.391 93.4648H276.261Z" fill="#060606" fill-opacity="0.8"/>
<path d="M310.232 93.4648L298.814 119.058L309.79 144.982H320.829L309.898 119.164L321.362 93.4648H310.232Z" fill="#060606" fill-opacity="0.8"/>
</g>
<defs>
<clipPath id="clip0_21_416">
<rect width="282.667" height="60" fill="white" transform="translate(39 90)"/>
</clipPath>
</defs>
</svg>
