<svg width="16" height="16" viewBox="0 0 16 16" fill="none" xmlns="http://www.w3.org/2000/svg">
<path d="M11.3335 5.59987L4.06686 12.8665C3.94464 12.9888 3.78908 13.0499 3.6002 13.0499C3.41131 13.0499 3.25575 12.9888 3.13353 12.8665C3.01131 12.7443 2.9502 12.5888 2.9502 12.3999C2.9502 12.211 3.01131 12.0554 3.13353 11.9332L10.4002 4.66654H6.0002C5.81131 4.66654 5.65297 4.60265 5.5252 4.47487C5.39742 4.3471 5.33353 4.18876 5.33353 3.99987C5.33353 3.81098 5.39742 3.65265 5.5252 3.52487C5.65297 3.3971 5.81131 3.33321 6.0002 3.33321H12.0002C12.1891 3.33321 12.3474 3.3971 12.4752 3.52487C12.603 3.65265 12.6669 3.81098 12.6669 3.99987V9.99987C12.6669 10.1888 12.603 10.3471 12.4752 10.4749C12.3474 10.6027 12.1891 10.6665 12.0002 10.6665C11.8113 10.6665 11.653 10.6027 11.5252 10.4749C11.3974 10.3471 11.3335 10.1888 11.3335 9.99987V5.59987Z" fill="#060606"/>
</svg>
