<svg width="17" height="16" viewBox="0 0 17 16" fill="none" xmlns="http://www.w3.org/2000/svg">
<g id="north_east_24dp_5F6368_FILL0_wght400_GRAD0_opsz24 1">
<path id="Vector" d="M11.8335 5.60016L4.56686 12.8668C4.44464 12.9891 4.28908 13.0502 4.1002 13.0502C3.91131 13.0502 3.75575 12.9891 3.63353 12.8668C3.51131 12.7446 3.4502 12.5891 3.4502 12.4002C3.4502 12.2113 3.51131 12.0557 3.63353 11.9335L10.9002 4.66683H6.5002C6.31131 4.66683 6.15297 4.60294 6.0252 4.47516C5.89742 4.34739 5.83353 4.18905 5.83353 4.00016C5.83353 3.81127 5.89742 3.65294 6.0252 3.52516C6.15297 3.39738 6.31131 3.3335 6.5002 3.3335H12.5002C12.6891 3.3335 12.8474 3.39738 12.9752 3.52516C13.103 3.65294 13.1669 3.81127 13.1669 4.00016V10.0002C13.1669 10.1891 13.103 10.3474 12.9752 10.4752C12.8474 10.6029 12.6891 10.6668 12.5002 10.6668C12.3113 10.6668 12.153 10.6029 12.0252 10.4752C11.8974 10.3474 11.8335 10.1891 11.8335 10.0002V5.60016Z" fill="white"/>
</g>
</svg>
