<svg width="72" height="72" viewBox="0 0 72 72" fill="none" xmlns="http://www.w3.org/2000/svg">
<g id="paid_24dp_5F6368_FILL0_wght300_GRAD0_opsz24 1">
<path id="Vector" d="M36.0053 64.4995C32.0633 64.4995 28.358 63.7515 24.8895 62.2555C21.421 60.7595 18.404 58.7293 15.8385 56.1648C13.273 53.6003 11.2417 50.5845 9.74475 47.1175C8.24825 43.6505 7.5 39.9463 7.5 36.0048C7.5 32.0628 8.248 28.3575 9.744 24.889C11.24 21.4205 13.2703 18.4035 15.8348 15.838C18.3993 13.2725 21.415 11.2413 24.882 9.74426C28.349 8.24776 32.0533 7.49951 35.9948 7.49951C39.9368 7.49951 43.642 8.24751 47.1105 9.74351C50.579 11.2395 53.596 13.2698 56.1615 15.8343C58.727 18.3988 60.7583 21.4145 62.2553 24.8815C63.7518 28.3485 64.5 32.0528 64.5 35.9943C64.5 39.9363 63.752 43.6415 62.256 47.11C60.76 50.5785 58.7298 53.5955 56.1653 56.161C53.6008 58.7265 50.585 60.7578 47.118 62.2548C43.651 63.7513 39.9468 64.4995 36.0053 64.4995ZM36 59.9995C42.7 59.9995 48.375 57.6745 53.025 53.0245C57.675 48.3745 60 42.6995 60 35.9995C60 29.2995 57.675 23.6245 53.025 18.9745C48.375 14.3245 42.7 11.9995 36 11.9995C29.3 11.9995 23.625 14.3245 18.975 18.9745C14.325 23.6245 12 29.2995 12 35.9995C12 42.6995 14.325 48.3745 18.975 53.0245C23.625 57.6745 29.3 59.9995 36 59.9995ZM35.925 56.4228C36.471 56.4228 36.9488 56.2178 37.3583 55.8078C37.7683 55.3983 37.9733 54.9205 37.9733 54.3745V52.7883C40.3003 52.4728 42.407 51.5985 44.2935 50.1655C46.18 48.733 47.1233 46.561 47.1233 43.6495C47.1233 41.5495 46.504 39.6918 45.2655 38.0763C44.027 36.4613 41.6078 35.0038 38.0078 33.7038C34.8538 32.6268 32.7595 31.694 31.725 30.9055C30.6905 30.117 30.1733 29.015 30.1733 27.5995C30.1733 26.184 30.703 25.034 31.7625 24.1495C32.822 23.265 34.2845 22.8228 36.15 22.8228C37.2655 22.8228 38.2415 23.0313 39.078 23.4483C39.9145 23.8658 40.6213 24.4225 41.1983 25.1185C41.5638 25.565 41.9867 25.8765 42.4672 26.053C42.9482 26.23 43.4035 26.2225 43.833 26.0305C44.4195 25.7995 44.8202 25.4053 45.0352 24.8478C45.2502 24.2898 45.1963 23.7783 44.8733 23.3133C44.0733 22.1823 43.0808 21.2408 41.8958 20.4888C40.7113 19.7368 39.4538 19.3108 38.1233 19.2108V17.6245C38.1233 17.0785 37.9183 16.6008 37.5083 16.1913C37.0988 15.7813 36.621 15.5763 36.075 15.5763C35.529 15.5763 35.0513 15.7813 34.6418 16.1913C34.2318 16.6008 34.0268 17.0785 34.0268 17.6245V19.2108C31.4693 19.7033 29.505 20.7408 28.134 22.3233C26.7625 23.9063 26.0768 25.665 26.0768 27.5995C26.0768 29.8535 26.7595 31.667 28.125 33.04C29.4905 34.413 31.7155 35.6533 34.8 36.7608C37.9885 37.9303 40.1665 38.9795 41.334 39.9085C42.501 40.837 43.0845 42.084 43.0845 43.6495C43.0845 45.5305 42.4058 46.8968 41.0483 47.7483C39.6903 48.6003 38.1575 49.0263 36.45 49.0263C35.025 49.0263 33.737 48.6705 32.586 47.959C31.435 47.2475 30.471 46.2188 29.694 44.8728C29.3905 44.3458 28.981 43.991 28.4655 43.8085C27.95 43.6255 27.4455 43.6313 26.952 43.8258C26.42 44.0203 26.0305 44.3895 25.7835 44.9335C25.537 45.4775 25.5348 45.9975 25.7768 46.4935C26.6153 48.1745 27.7095 49.5188 29.0595 50.5263C30.4095 51.5343 32.0153 52.2383 33.8768 52.6383V54.3745C33.8768 54.9205 34.0818 55.3983 34.4918 55.8078C34.9013 56.2178 35.379 56.4228 35.925 56.4228Z" fill="#0063F2"/>
</g>
</svg>
