<svg width="120" height="32" viewBox="0 0 120 32" fill="none" xmlns="http://www.w3.org/2000/svg">
<g id="Ripple" clip-path="url(#clip0_209_1555)">
<path id="Vector" fill-rule="evenodd" clip-rule="evenodd" d="M16 0C7.16 0 0 7.16 0 16C8.84 16 16 8.84 16 0ZM16 32C16 23.16 8.84 16 0 16C0 24.84 7.16 32 16 32ZM16 0C16 8.84 23.16 16 32 16C32 7.16 24.84 0 16 0ZM32 16C23.16 16 16 23.16 16 32C24.84 32 32 24.84 32 16ZM98.46 3.59003H101.58V26H98.46V3.59003ZM60.56 4.81H57V7.87H60.56V4.81ZM60.34 10H57.22V26H60.34V10ZM41.75 17.81H46.25V17.82C47.7 17.82 48.78 18.11 49.48 18.68C50.18 19.26 50.6 20.18 50.75 21.45L51.28 26.01H54.34L53.78 21.1C53.61 19.7 53.26 18.65 52.73 17.94C52.2 17.23 51.38 16.76 50.28 16.53C51.51 16.15 52.48 15.51 53.19 14.59C53.9 13.68 54.25 12.56 54.25 11.25C54.25 10.02 53.98 8.96 53.44 8.05C52.89 7.14 52.13 6.44 51.14 5.94C50.15 5.44 48.99 5.19 47.66 5.19H38.66V26H41.75V17.81ZM41.75 7.91H47.22C48.45 7.91 49.41 8.23 50.1 8.88C50.79 9.53 51.13 10.44 51.13 11.57C51.13 12.7 50.79 13.57 50.1 14.18C49.41 14.79 48.45 15.1 47.22 15.1H41.75V7.91ZM63.56 10H66.68V12.81C67.24 11.79 67.98 11 68.88 10.43C69.78 9.86003 70.82 9.59003 71.99 9.59003C73.37 9.59003 74.57 9.93003 75.6 10.62C76.63 11.31 77.43 12.28 78.01 13.53C78.58 14.78 78.87 16.25 78.87 17.94C78.87 19.63 78.58 21.1 78.01 22.36C77.44 23.62 76.63 24.6 75.6 25.3C74.57 26 73.37 26.35 71.99 26.35C70.82 26.35 69.79 26.06 68.88 25.49C67.97 24.92 67.24 24.12 66.68 23.1V31.22H63.56V10ZM75.69 17.94C75.69 16.17 75.3 14.79 74.52 13.82C73.74 12.84 72.63 12.35 71.19 12.35C69.75 12.35 68.64 12.84 67.86 13.82C67.08 14.8 66.69 16.17 66.69 17.94C66.69 19.71 67.08 21.12 67.86 22.11C68.64 23.1 69.75 23.59 71.19 23.59C72.63 23.59 73.74 23.1 74.52 22.11C75.3 21.12 75.69 19.73 75.69 17.94ZM84.13 10H81.01V31.22H84.13V23.1C84.69 24.12 85.42 24.92 86.33 25.49C87.24 26.06 88.27 26.35 89.44 26.35C90.82 26.35 92.02 26 93.05 25.3C94.08 24.6 94.89 23.62 95.46 22.36C96.03 21.1 96.32 19.63 96.32 17.94C96.32 16.25 96.03 14.78 95.46 13.53C94.88 12.28 94.08 11.31 93.05 10.62C92.02 9.93003 90.82 9.59003 89.44 9.59003C88.27 9.59003 87.23 9.86003 86.33 10.43C85.43 11 84.69 11.79 84.13 12.81V10ZM91.97 13.82C92.75 14.79 93.14 16.17 93.14 17.94C93.14 19.73 92.75 21.12 91.97 22.11C91.19 23.1 90.08 23.59 88.64 23.59C87.2 23.59 86.09 23.1 85.31 22.11C84.53 21.12 84.14 19.71 84.14 17.94C84.14 16.17 84.53 14.8 85.31 13.82C86.09 12.84 87.2 12.35 88.64 12.35C90.08 12.35 91.19 12.84 91.97 13.82ZM104.63 13.53C104 14.76 103.69 16.23 103.69 17.94C103.69 19.65 104 21.12 104.64 22.36C105.27 23.61 106.17 24.56 107.34 25.24C108.51 25.92 109.9 26.26 111.5 26.26C115.71 26.26 118.15 24.44 118.84 20.82H115.56C115.39 21.7 114.97 22.39 114.28 22.9C113.59 23.42 112.68 23.67 111.53 23.67C108.68 23.67 107.14 22.03 106.91 18.76H119.03V17.79C119.03 16.23 118.7 14.84 118.05 13.62C117.4 12.4 116.49 11.44 115.32 10.74C114.15 10.04 112.89 9.69 111.32 9.69C109.75 9.69 108.41 10.02 107.27 10.69C106.13 11.35 105.25 12.3 104.63 13.53ZM106.94 16.47C107.3 13.58 108.77 12.13 111.35 12.13L111.34 12.12C112.55 12.12 113.56 12.52 114.36 13.31C115.16 14.11 115.62 15.16 115.72 16.47H106.94Z" fill="#060606"/>
</g>
<defs>
<clipPath id="clip0_209_1555">
<rect width="120" height="32" fill="white"/>
</clipPath>
</defs>
</svg>
