<svg width="72" height="72" viewBox="0 0 72 72" fill="none" xmlns="http://www.w3.org/2000/svg">
<g id="speed_24dp_5F6368_FILL0_wght300_GRAD0_opsz24 1">
<path id="Vector" d="M31.8113 46.0383C32.8768 47.1033 34.249 47.609 35.928 47.5555C37.6065 47.5015 38.8383 46.8958 39.6233 45.7383L51.723 28.2115C52.1525 27.565 52.1038 26.9783 51.5768 26.4513C51.0498 25.9248 50.4625 25.8758 49.815 26.3043L32.2613 38.3763C31.0848 39.1613 30.4493 40.368 30.3548 41.9965C30.2608 43.6255 30.7463 44.9728 31.8113 46.0383ZM36 13.4995C37.973 13.4995 39.8585 13.6785 41.6565 14.0365C43.455 14.394 45.208 14.9458 46.9155 15.6918C47.523 15.9343 48.1278 16.367 48.7298 16.99C49.3318 17.613 49.4855 18.2033 49.191 18.7608C48.897 19.3188 48.2615 19.689 47.2845 19.8715C46.3075 20.0545 45.5 20.0248 44.862 19.7823C43.458 19.1783 42.027 18.7303 40.569 18.4383C39.1115 18.1458 37.5885 17.9995 36 17.9995C29.35 17.9995 23.6875 20.337 19.0125 25.012C14.3375 29.687 12 35.3495 12 41.9995C12 44.0995 12.2875 46.1745 12.8625 48.2245C13.4375 50.2745 14.25 52.1995 15.3 53.9995H56.7C57.85 52.0995 58.6875 50.1245 59.2125 48.0745C59.7375 46.0245 60 43.8995 60 41.6995C60 40.284 59.8588 38.831 59.5763 37.3405C59.2933 35.8505 58.8498 34.4188 58.2458 33.0453C58.0038 32.4073 57.9538 31.7843 58.0958 31.1763C58.2383 30.5688 58.5748 30.0655 59.1053 29.6665C59.5978 29.304 60.1355 29.2035 60.7185 29.365C61.301 29.5265 61.7135 29.8803 61.956 30.4263C62.821 32.3108 63.4535 34.1655 63.8535 35.9905C64.2535 37.8155 64.469 39.6878 64.5 41.6073C64.5305 44.3228 64.2248 46.889 63.5828 49.306C62.9403 51.7235 61.973 54.088 60.681 56.3995C60.2845 57.0495 59.7268 57.562 59.0078 57.937C58.2883 58.312 57.519 58.4995 56.7 58.4995H15.3C14.5 58.4995 13.7453 58.3073 13.0358 57.9228C12.3263 57.5378 11.754 56.9915 11.319 56.284C10.173 54.284 9.25 52.1033 8.55 49.7418C7.85 47.3803 7.5 44.7995 7.5 41.9995C7.5 38.0805 8.2435 34.3963 9.7305 30.9468C11.2175 27.4973 13.2472 24.476 15.8197 21.883C18.3927 19.29 21.4175 17.2445 24.894 15.7465C28.371 14.2485 32.073 13.4995 36 13.4995Z" fill="#0063F2"/>
</g>
</svg>
