<svg width="72" height="72" viewBox="0 0 72 72" fill="none" xmlns="http://www.w3.org/2000/svg">
<g id="sync_24dp_5F6368_FILL0_wght300_GRAD0_opsz24 1">
<path id="Vector" d="M17.25 36.2075C17.25 38.5515 17.6938 40.8302 18.5813 43.0437C19.4683 45.2572 20.8515 47.3015 22.731 49.1765L24.6345 51.0807V45.1152C24.6345 44.4777 24.8503 43.9432 25.2818 43.5117C25.7133 43.0807 26.2478 42.8652 26.8853 42.8652C27.5233 42.8652 28.0578 43.0807 28.4888 43.5117C28.9193 43.9432 29.1345 44.4777 29.1345 45.1152V56.3075C29.1345 57.0755 28.8748 57.7195 28.3553 58.2395C27.8353 58.759 27.1913 59.0187 26.4233 59.0187H15.231C14.5935 59.0187 14.059 58.803 13.6275 58.3715C13.1965 57.94 12.981 57.4055 12.981 56.768C12.981 56.13 13.1965 55.5957 13.6275 55.1652C14.059 54.7342 14.5935 54.5187 15.231 54.5187H21.75L19.569 52.4307C17.104 50.1497 15.3512 47.5947 14.3107 44.7657C13.2702 41.9372 12.75 39.0845 12.75 36.2075C12.75 31.6805 13.9115 27.5575 16.2345 23.8385C18.5575 20.119 21.6768 17.2535 25.5923 15.242C26.1383 14.938 26.7123 14.9035 27.3143 15.1385C27.9163 15.373 28.3135 15.791 28.506 16.3925C28.698 16.9565 28.6862 17.526 28.4707 18.101C28.2547 18.6765 27.8723 19.1177 27.3233 19.4247C24.2503 21.0822 21.803 23.3985 19.9815 26.3735C18.1605 29.349 17.25 32.627 17.25 36.2075ZM54.75 35.792C54.75 33.448 54.3063 31.1692 53.4188 28.9557C52.5317 26.7422 51.1485 24.698 49.269 22.823L47.3655 20.9187V26.8842C47.3655 27.5217 47.1497 28.0562 46.7183 28.4877C46.2868 28.9187 45.7523 29.1342 45.1148 29.1342C44.4768 29.1342 43.9423 28.9187 43.5113 28.4877C43.0808 28.0562 42.8655 27.5217 42.8655 26.8842V15.692C42.8655 14.924 43.1252 14.28 43.6448 13.76C44.1648 13.2405 44.8088 12.9807 45.5768 12.9807H56.769C57.4065 12.9807 57.941 13.1965 58.3725 13.628C58.8035 14.0595 59.019 14.594 59.019 15.2315C59.019 15.8695 58.8035 16.4037 58.3725 16.8342C57.941 17.2652 57.4065 17.4807 56.769 17.4807H50.25L52.431 19.5687C54.8005 21.9382 56.5295 24.5135 57.618 27.2945C58.706 30.075 59.25 32.909 59.25 35.7965C59.25 40.3205 58.0933 44.4372 55.7798 48.1467C53.4663 51.8562 50.3518 54.7167 46.4363 56.7282C45.8903 57.0322 45.3162 57.0717 44.7143 56.8467C44.1123 56.6217 43.7153 56.2085 43.5233 55.607C43.3308 55.043 43.3433 54.4727 43.5608 53.8962C43.7778 53.3192 44.1498 52.8787 44.6768 52.5747C47.7498 50.9172 50.197 48.601 52.0185 45.626C53.8395 42.6505 54.75 39.3725 54.75 35.792Z" fill="#0063F2"/>
</g>
</svg>
