<svg width="72" height="72" viewBox="0 0 72 72" fill="none" xmlns="http://www.w3.org/2000/svg">
<g id="timer_24dp_5F6368_FILL0_wght300_GRAD0_opsz24 1">
<path id="Vector" d="M29.8268 8.24854C29.1893 8.24854 28.655 8.03278 28.224 7.60128C27.7925 7.16978 27.5768 6.63528 27.5768 5.99778C27.5768 5.35978 27.7925 4.82553 28.224 4.39503C28.655 3.96403 29.1893 3.74854 29.8268 3.74854H42.1733C42.8108 3.74854 43.345 3.96429 43.776 4.39579C44.2075 4.82729 44.4233 5.36179 44.4233 5.99929C44.4233 6.63729 44.2075 7.17154 43.776 7.60204C43.345 8.03304 42.8108 8.24854 42.1733 8.24854H29.8268ZM36.0008 41.4218C36.6388 41.4218 37.173 41.206 37.6035 40.7745C38.0345 40.3435 38.25 39.8093 38.25 39.1718V26.8253C38.25 26.1878 38.0343 25.6535 37.6028 25.2225C37.1713 24.791 36.6368 24.5753 35.9993 24.5753C35.3613 24.5753 34.827 24.791 34.3965 25.2225C33.9655 25.6535 33.75 26.1878 33.75 26.8253V39.1718C33.75 39.8093 33.9658 40.3435 34.3973 40.7745C34.8288 41.206 35.3633 41.4218 36.0008 41.4218ZM36 64.4985C32.5015 64.4985 29.2038 63.8293 26.1068 62.4908C23.0098 61.1523 20.3038 59.3253 17.9888 57.0098C15.6733 54.6948 13.8463 51.9888 12.5078 48.8918C11.1693 45.7948 10.5 42.497 10.5 38.9985C10.5 35.5 11.1693 32.2023 12.5078 29.1053C13.8463 26.0083 15.6733 23.3023 17.9888 20.9873C20.3038 18.6718 23.0098 16.8448 26.1068 15.5063C29.2038 14.1678 32.5015 13.4985 36 13.4985C39.004 13.4985 41.8972 14.0083 44.6797 15.0278C47.4622 16.0468 50.046 17.5063 52.431 19.4063L54.5887 17.2485C55.0037 16.833 55.5258 16.6205 56.1548 16.611C56.7838 16.6015 57.3155 16.814 57.75 17.2485C58.1845 17.683 58.4018 18.21 58.4018 18.8295C58.4018 19.4485 58.1845 19.9753 57.75 20.4098L55.5923 22.5675C57.4923 24.9525 58.9518 27.5363 59.9708 30.3188C60.9903 33.1013 61.5 35.9945 61.5 38.9985C61.5 42.497 60.8308 45.7948 59.4923 48.8918C58.1538 51.9888 56.3268 54.6948 54.0113 57.0098C51.6963 59.3253 48.9902 61.1523 45.8932 62.4908C42.7962 63.8293 39.4985 64.4985 36 64.4985ZM36 59.9985C41.8 59.9985 46.75 57.9485 50.85 53.8485C54.95 49.7485 57 44.7985 57 38.9985C57 33.1985 54.95 28.2485 50.85 24.1485C46.75 20.0485 41.8 17.9985 36 17.9985C30.2 17.9985 25.25 20.0485 21.15 24.1485C17.05 28.2485 15 33.1985 15 38.9985C15 44.7985 17.05 49.7485 21.15 53.8485C25.25 57.9485 30.2 59.9985 36 59.9985Z" fill="#0063F2"/>
</g>
</svg>
